<svg xmlns:xlink="http://www.w3.org/1999/xlink" width="29.563ex" height="3.343ex" style="font-size: 15px; vertical-align: -1.171ex;" viewBox="0 -934.9 12728.5 1439.2" role="img" focusable="false" xmlns="http://www.w3.org/2000/svg">
<defs>
<path stroke-width="1" id="E1-MJMAIN-32" d="M109 429Q82 429 66 447T50 491Q50 562 103 614T235 666Q326 666 387 610T449 465Q449 422 429 383T381 315T301 241Q265 210 201 149L142 93L218 92Q375 92 385 97Q392 99 409 186V189H449V186Q448 183 436 95T421 3V0H50V19V31Q50 38 56 46T86 81Q115 113 136 137Q145 147 170 174T204 211T233 244T261 278T284 308T305 340T320 369T333 401T340 431T343 464Q343 527 309 573T212 619Q179 619 154 602T119 569T109 550Q109 549 114 549Q132 549 151 535T170 489Q170 464 154 447T109 429Z"></path>
<path stroke-width="1" id="E1-MJMAIN-30" d="M96 585Q152 666 249 666Q297 666 345 640T423 548Q460 465 460 320Q460 165 417 83Q397 41 362 16T301 -15T250 -22Q224 -22 198 -16T137 16T82 83Q39 165 39 320Q39 494 96 585ZM321 597Q291 629 250 629Q208 629 178 597Q153 571 145 525T137 333Q137 175 145 125T181 46Q209 16 250 16Q290 16 318 46Q347 76 354 130T362 333Q362 478 354 524T321 597Z"></path>
<path stroke-width="1" id="E1-MJMATHI-50" d="M287 628Q287 635 230 637Q206 637 199 638T192 648Q192 649 194 659Q200 679 203 681T397 683Q587 682 600 680Q664 669 707 631T751 530Q751 453 685 389Q616 321 507 303Q500 302 402 301H307L277 182Q247 66 247 59Q247 55 248 54T255 50T272 48T305 46H336Q342 37 342 35Q342 19 335 5Q330 0 319 0Q316 0 282 1T182 2Q120 2 87 2T51 1Q33 1 33 11Q33 13 36 25Q40 41 44 43T67 46Q94 46 127 49Q141 52 146 61Q149 65 218 339T287 628ZM645 554Q645 567 643 575T634 597T609 619T560 635Q553 636 480 637Q463 637 445 637T416 636T404 636Q391 635 386 627Q384 621 367 550T332 412T314 344Q314 342 395 342H407H430Q542 342 590 392Q617 419 631 471T645 554Z"></path>
<path stroke-width="1" id="E1-MJMATHI-72" d="M21 287Q22 290 23 295T28 317T38 348T53 381T73 411T99 433T132 442Q161 442 183 430T214 408T225 388Q227 382 228 382T236 389Q284 441 347 441H350Q398 441 422 400Q430 381 430 363Q430 333 417 315T391 292T366 288Q346 288 334 299T322 328Q322 376 378 392Q356 405 342 405Q286 405 239 331Q229 315 224 298T190 165Q156 25 151 16Q138 -11 108 -11Q95 -11 87 -5T76 7T74 17Q74 30 114 189T154 366Q154 405 128 405Q107 405 92 377T68 316T57 280Q55 278 41 278H27Q21 284 21 287Z"></path>
<path stroke-width="1" id="E1-MJMATHI-6F" d="M201 -11Q126 -11 80 38T34 156Q34 221 64 279T146 380Q222 441 301 441Q333 441 341 440Q354 437 367 433T402 417T438 387T464 338T476 268Q476 161 390 75T201 -11ZM121 120Q121 70 147 48T206 26Q250 26 289 58T351 142Q360 163 374 216T388 308Q388 352 370 375Q346 405 306 405Q243 405 195 347Q158 303 140 230T121 120Z"></path>
</defs>
<g stroke="currentColor" fill="currentColor" stroke-width="0" transform="matrix(1 0 0 -1 0 0)">
 <use xlink:href="#E1-MJMAIN-32"></use>
 <use xlink:href="#E1-MJMAIN-30" x="500" y="0"></use>
 <use xlink:href="#E1-MJMAIN-30" x="1001" y="0"></use>
<g transform="translate(1501,0)">
<text font-family="monospace" stroke="none" transform="scale(71.759) matrix(1 0 0 -1 0 0)">每</text>
</g>
<g transform="translate(2649,0)">
<text font-family="monospace" stroke="none" transform="scale(71.759) matrix(1 0 0 -1 0 0)">周</text>
</g>
<g transform="translate(3797,0)">
 <use xlink:href="#E1-MJMAIN-32"></use>
 <use xlink:href="#E1-MJMAIN-30" x="500" y="0"></use>
 <use xlink:href="#E1-MJMAIN-30" x="1001" y="0"></use>
</g>
<g transform="translate(5299,0)">
<text font-family="monospace" stroke="none" transform="scale(71.759) matrix(1 0 0 -1 0 0)">条</text>
</g>
<g transform="translate(6447,0)">
<text font-family="monospace" stroke="none" transform="scale(71.759) matrix(1 0 0 -1 0 0)">算</text>
</g>
<g transform="translate(7595,0)">
<text font-family="monospace" stroke="none" transform="scale(71.759) matrix(1 0 0 -1 0 0)">够</text>
</g>
<g transform="translate(8743,0)">
<text font-family="monospace" stroke="none" transform="scale(71.759) matrix(1 0 0 -1 0 0)">用</text>
</g>
<g transform="translate(9891,0)">
<text font-family="monospace" stroke="none" transform="scale(71.759) matrix(1 0 0 -1 0 0)">，</text>
</g>
 <use xlink:href="#E1-MJMATHI-50" x="11040" y="0"></use>
 <use xlink:href="#E1-MJMATHI-72" x="11791" y="0"></use>
 <use xlink:href="#E1-MJMATHI-6F" x="12243" y="0"></use>
</g>
</svg>